<svg version="1.0" xmlns="http://www.w3.org/2000/svg"
     width="100.000000pt" height="100.000000pt" viewBox="0 0 100.000000 100.000000"
     preserveAspectRatio="xMidYMid meet">

    <g transform="translate(0.000000,100.000000) scale(0.100000,-0.100000)"
       fill="#000000" stroke="none">
        <path d="M300 861 c-96 -55 -185 -109 -197 -121 -23 -22 -23 -26 -23 -240 0
-214 0 -218 23 -240 36 -35 369 -219 397 -220 28 0 384 199 405 227 21 26 21
440 0 466 -21 28 -377 227 -405 227 -14 -1 -104 -45 -200 -99z m384 -37 c94
-53 177 -101 184 -106 9 -8 12 -64 12 -218 0 -154 -3 -210 -12 -218 -26 -20
-356 -202 -368 -202 -11 0 -342 182 -367 202 -10 8 -13 64 -13 220 l0 209 37
22 c127 75 330 186 342 187 7 0 90 -43 185 -96z"/>
        <path d="M430 751 c-46 -15 -85 -39 -116 -73 -54 -57 -69 -95 -69 -178 0 -83
15 -121 69 -178 53 -57 101 -77 186 -77 85 0 132 20 188 78 37 38 38 36 -41
81 l-49 28 -25 -24 c-19 -18 -36 -23 -74 -23 -42 0 -53 5 -81 33 -28 28 -33
39 -33 82 0 43 5 54 33 82 28 28 39 33 81 33 38 0 55 -5 74 -23 l25 -24 49 28
c79 45 78 43 41 81 -18 19 -51 44 -73 55 -43 22 -144 33 -185 19z m155 -50
c22 -10 46 -25 54 -35 12 -14 11 -18 -5 -31 -25 -19 -27 -19 -69 6 -64 38
-147 15 -199 -55 -16 -20 -21 -42 -21 -85 0 -48 5 -64 29 -95 49 -65 120 -82
191 -46 46 24 45 23 69 5 19 -14 19 -15 1 -34 -9 -11 -37 -28 -61 -37 -143
-54 -303 65 -292 218 11 152 168 251 303 189z"/>
        <path d="M700 580 c0 -13 -7 -20 -20 -20 -13 0 -20 -7 -20 -20 0 -13 7 -20 20
-20 13 0 20 -7 20 -20 0 -13 -7 -20 -20 -20 -13 0 -20 -7 -20 -20 0 -13 7 -20
20 -20 13 0 20 -7 20 -20 0 -13 7 -20 20 -20 13 0 20 7 20 20 0 13 7 20 20 20
13 0 20 -7 20 -20 0 -13 7 -20 20 -20 13 0 20 7 20 20 0 13 7 20 20 20 13 0
20 7 20 20 0 13 -7 20 -20 20 -13 0 -20 7 -20 20 0 13 7 20 20 20 13 0 20 7
20 20 0 13 -7 20 -20 20 -13 0 -20 7 -20 20 0 13 -7 20 -20 20 -13 0 -20 -7
-20 -20 0 -13 -7 -20 -20 -20 -13 0 -20 7 -20 20 0 13 -7 20 -20 20 -13 0 -20
-7 -20 -20z m80 -80 c0 -13 -7 -20 -20 -20 -13 0 -20 7 -20 20 0 13 7 20 20
20 13 0 20 -7 20 -20z"/>
    </g>
</svg>
