<svg version="1.0" xmlns="http://www.w3.org/2000/svg"
     width="96.000000pt" height="96.000000pt" viewBox="0 0 96.000000 96.000000"
     preserveAspectRatio="xMidYMid meet">

    <g transform="translate(0.000000,96.000000) scale(0.100000,-0.100000)"
       fill="#000000" stroke="none">
        <path d="M530 828 c0 -9 -38 -54 -85 -100 -62 -62 -85 -91 -85 -110 0 -29 45
-101 79 -124 22 -16 22 -16 -4 36 -16 31 -23 59 -20 71 4 11 31 47 61 82 59
67 86 129 66 149 -9 9 -12 8 -12 -4z"/>
        <path d="M572 717 c-41 -13 -92 -70 -92 -103 0 -14 12 -45 26 -69 20 -36 23
-48 14 -64 -6 -12 -7 -21 -3 -21 14 0 30 15 42 38 10 20 9 32 -11 79 l-23 55
53 49 c54 50 53 55 -6 36z"/>
        <path d="M267 458 c-34 -12 -32 -39 3 -49 36 -10 227 -10 278 0 24 5 48 13 54
19 7 7 -34 8 -129 5 -107 -5 -142 -3 -148 7 -4 7 -2 16 6 21 20 12 -28 10 -64
-3z"/>
        <path d="M680 457 c37 -19 32 -69 -12 -114 l-33 -34 30 11 c63 24 94 75 75
124 -8 22 -16 26 -47 26 -37 0 -38 -1 -13 -13z"/>
        <path d="M311 371 c-48 -30 68 -68 172 -56 144 16 136 48 -10 38 -76 -5 -96
-3 -117 11 -29 19 -27 18 -45 7z"/>
        <path d="M329 284 c-11 -14 -11 -18 4 -29 27 -20 107 -26 172 -14 73 13 79 17
64 36 -10 11 -24 13 -62 8 -71 -10 -131 -8 -135 4 -5 16 -28 13 -43 -5z"/>
        <path d="M200 242 c-90 -73 200 -128 423 -80 59 12 103 47 94 73 -7 16 -9 15
-27 -8 -13 -16 -38 -30 -72 -38 -68 -16 -271 -15 -323 3 -49 16 -57 42 -18 56
27 10 27 10 -13 11 -26 1 -50 -6 -64 -17z"/>
        <path d="M734 154 c-53 -32 -156 -53 -264 -55 l-85 -2 70 -9 c122 -17 288 21
316 73 12 23 13 24 -37 -7z"/>
        <path d="M358 103 c7 -3 16 -2 19 1 4 3 -2 6 -13 5 -11 0 -14 -3 -6 -6z"/>
    </g>
</svg>
