<svg version="1.0" xmlns="http://www.w3.org/2000/svg"
     width="512.000000pt" height="512.000000pt" viewBox="0 0 512.000000 512.000000"
     preserveAspectRatio="xMidYMid meet">

    <g transform="translate(0.000000,512.000000) scale(0.100000,-0.100000)"
       fill="#000000" stroke="none">
        <path d="M1960 4950 c-49 -5 -93 -16 -125 -32 -28 -14 -76 -31 -108 -38 -32
-6 -70 -22 -86 -36 -16 -13 -46 -31 -67 -40 -101 -42 -309 -250 -374 -373 -14
-26 -35 -60 -47 -75 -12 -15 -29 -58 -37 -96 -9 -38 -25 -84 -37 -104 -22 -38
-39 -159 -39 -292 0 -49 -5 -86 -12 -96 -15 -19 -140 -70 -216 -88 -29 -7 -66
-23 -82 -36 -15 -13 -45 -31 -67 -40 -21 -9 -55 -32 -76 -50 -20 -19 -41 -34
-47 -34 -13 0 -140 -127 -140 -140 0 -6 -15 -27 -34 -47 -18 -21 -41 -55 -50
-76 -9 -22 -27 -52 -40 -67 -13 -16 -29 -53 -36 -82 -7 -29 -26 -84 -43 -123
l-31 -70 0 -195 0 -195 31 -70 c17 -38 36 -94 43 -123 7 -29 23 -66 36 -82 13
-15 31 -45 40 -67 9 -21 32 -55 50 -76 19 -20 34 -40 34 -45 0 -14 115 -129
145 -145 17 -8 41 -27 54 -41 13 -14 40 -31 60 -37 20 -7 50 -24 68 -40 20
-17 53 -32 90 -39 130 -27 143 -48 143 -233 l0 -134 -37 -36 c-21 -20 -49 -48
-63 -62 -29 -30 -43 -44 -77 -78 -14 -13 -32 -31 -40 -40 -9 -8 -27 -26 -40
-40 -14 -13 -32 -31 -40 -40 -9 -8 -27 -26 -40 -40 -14 -13 -32 -31 -40 -40
-9 -8 -26 -26 -40 -40 -14 -14 -30 -30 -36 -37 -7 -6 -32 -31 -57 -56 l-45
-45 -3 -163 c-4 -190 -2 -196 78 -196 75 0 80 9 80 159 l0 128 38 36 c20 20
44 44 53 54 9 10 27 28 40 39 22 19 41 38 86 85 8 9 27 28 40 42 14 13 32 31
40 40 9 8 27 26 40 40 14 13 32 31 40 40 9 8 27 26 40 40 14 13 33 32 42 41 9
10 34 35 56 57 l40 39 3 167 c2 98 8 173 14 180 14 18 279 18 296 1 9 -9 12
-72 12 -223 l0 -212 -37 -36 c-21 -20 -49 -48 -63 -62 -31 -31 -42 -42 -77
-78 -16 -15 -34 -34 -42 -41 -7 -8 -24 -24 -36 -37 -13 -13 -29 -30 -37 -37
-7 -7 -33 -33 -58 -58 l-45 -45 -3 -163 c-4 -190 -2 -196 78 -196 75 0 80 9
80 159 l0 128 38 36 c20 20 44 44 53 54 9 10 27 28 40 39 22 19 44 41 84 84 8
8 27 27 42 43 16 15 35 34 43 43 8 8 33 33 55 55 l40 39 3 247 c2 157 7 252
14 260 14 18 358 19 376 1 9 -9 12 -90 12 -303 l0 -292 -37 -36 c-21 -20 -49
-48 -63 -63 -14 -14 -29 -30 -35 -35 -5 -6 -30 -30 -55 -55 l-45 -45 -3 -163
c-4 -190 -2 -196 78 -196 75 0 80 9 80 159 l0 128 38 36 c20 20 44 44 53 54 9
10 27 28 40 40 13 12 42 40 64 63 l40 41 3 326 c2 216 6 331 14 340 14 18 278
19 296 1 9 -9 12 -153 12 -584 0 -648 -6 -604 80 -604 86 0 80 -44 80 604 0
431 3 575 12 584 18 18 282 17 296 -1 8 -9 12 -124 14 -339 l3 -327 45 -45
c25 -25 50 -49 55 -55 6 -5 21 -21 35 -35 14 -15 42 -43 63 -63 l37 -36 0
-128 c0 -150 5 -159 80 -159 80 0 82 6 78 196 l-3 163 -40 41 c-22 23 -51 51
-64 63 -13 12 -31 30 -40 40 -9 10 -33 34 -53 54 l-38 36 0 292 c0 213 3 294
12 303 18 18 362 17 376 -1 7 -8 12 -103 14 -260 l3 -247 40 -39 c22 -22 47
-47 55 -55 18 -18 58 -58 83 -83 10 -10 31 -31 47 -48 17 -16 33 -33 37 -37 5
-4 19 -18 33 -32 14 -15 42 -43 63 -63 l37 -36 0 -128 c0 -150 5 -159 80 -159
80 0 82 5 78 197 l-3 163 -35 34 c-19 18 -44 44 -56 57 -12 13 -32 34 -45 46
-13 12 -32 30 -42 40 -9 10 -29 29 -42 43 -33 33 -45 44 -75 75 -14 14 -42 42
-62 62 l-38 36 0 212 c0 151 3 214 12 223 17 17 282 17 296 -1 6 -7 12 -82 14
-180 l3 -167 40 -39 c22 -22 48 -48 58 -58 9 -10 27 -28 40 -40 12 -13 30 -31
40 -40 9 -10 27 -28 40 -40 12 -13 29 -29 37 -38 8 -8 26 -26 40 -40 14 -13
33 -33 43 -42 10 -10 31 -31 47 -48 17 -16 33 -33 37 -37 5 -4 19 -18 33 -32
14 -15 42 -43 63 -63 l37 -36 0 -128 c0 -150 5 -159 80 -159 80 0 82 5 78 197
l-3 163 -35 34 c-19 18 -44 44 -56 57 -12 13 -32 34 -45 46 -13 12 -32 30 -42
40 -9 10 -27 28 -40 40 -12 13 -30 31 -40 40 -9 10 -29 29 -42 43 -14 14 -32
32 -40 40 -9 8 -27 26 -40 40 -33 33 -45 44 -75 75 -14 14 -42 42 -62 62 l-38
36 0 133 c0 111 3 135 17 151 20 22 116 63 204 87 31 9 62 23 70 32 7 8 35 27
62 40 61 31 258 226 287 286 12 23 31 52 41 63 10 11 31 59 47 105 16 47 37
104 46 128 22 57 31 246 18 354 -7 53 -20 106 -35 135 -13 26 -30 72 -37 101
-7 29 -23 66 -36 82 -13 15 -30 41 -37 57 -32 76 -225 268 -307 304 -19 9 -41
23 -49 33 -7 9 -39 23 -70 32 -31 8 -87 29 -126 47 -70 31 -70 31 -250 31
-166 1 -184 -1 -229 -22 -27 -12 -55 -22 -62 -22 -17 0 -91 92 -110 138 -17
41 -121 146 -154 157 -13 4 -43 20 -67 35 -29 18 -65 31 -103 35 -33 4 -64 13
-71 21 -6 8 -15 52 -20 99 -6 56 -17 101 -33 133 -13 26 -29 73 -35 104 -7 31
-22 69 -34 84 -12 15 -33 49 -47 75 -37 71 -98 145 -183 224 -110 102 -147
131 -190 149 -22 9 -52 27 -68 40 -16 14 -55 30 -86 37 -32 6 -80 23 -106 35
-79 39 -257 52 -447 34z m303 -159 c37 -5 85 -18 107 -30 21 -11 67 -28 102
-36 35 -9 74 -27 88 -40 14 -12 48 -34 75 -48 76 -39 204 -171 254 -262 12
-22 32 -55 45 -72 13 -18 27 -50 31 -70 3 -21 18 -62 32 -92 28 -61 42 -147
43 -262 0 -110 3 -113 144 -120 99 -4 120 -8 144 -27 15 -12 44 -31 64 -42 21
-11 47 -37 58 -58 11 -20 29 -48 40 -62 14 -17 22 -47 26 -95 4 -39 13 -81 21
-94 14 -22 19 -23 93 -19 60 4 87 10 123 31 96 56 365 63 476 11 31 -14 79
-34 106 -43 67 -23 132 -70 224 -162 93 -93 140 -158 162 -225 9 -28 26 -69
38 -91 56 -111 54 -378 -3 -492 -13 -25 -29 -65 -35 -89 -7 -23 -24 -57 -40
-75 -15 -17 -37 -48 -49 -68 -23 -39 -144 -159 -160 -159 -6 0 -29 -16 -52
-35 -23 -19 -60 -40 -83 -46 -23 -6 -63 -22 -89 -35 -25 -13 -77 -28 -115 -34
-46 -7 -559 -10 -1588 -8 l-1520 3 -70 32 c-38 18 -89 37 -112 43 -23 6 -55
21 -70 34 -15 13 -46 33 -68 44 -53 26 -201 174 -227 227 -11 22 -31 53 -44
68 -13 15 -28 47 -34 70 -6 23 -25 74 -43 112 l-32 70 0 175 0 175 32 70 c18
39 37 88 42 110 6 22 22 56 37 75 14 19 34 51 44 70 26 51 172 196 222 221 24
12 56 32 71 45 15 13 47 28 70 34 23 6 66 22 95 35 29 14 88 30 130 35 42 6
86 12 98 15 38 8 46 48 39 200 -7 165 4 264 38 337 13 29 30 76 37 105 6 28
21 60 32 70 11 10 31 39 43 64 43 84 182 222 265 264 19 9 46 28 60 40 14 13
53 31 88 40 35 8 81 25 103 37 66 34 247 47 392 29z"/>
        <path d="M2180 4553 c-39 -13 -59 -28 -64 -49 -16 -64 24 -101 119 -111 47 -5
54 -3 69 18 18 26 21 81 6 109 -15 28 -90 47 -130 33z"/>
        <path d="M1827 4485 c-26 -7 -49 -14 -52 -16 -2 -2 -21 -17 -41 -34 -102 -82
-197 -193 -220 -257 -8 -23 -23 -57 -34 -75 -11 -18 -25 -59 -31 -91 -11 -52
-10 -63 7 -98 17 -35 23 -39 60 -42 53 -4 71 16 89 103 8 38 23 80 33 94 10
14 29 48 41 76 27 62 114 148 175 175 25 12 50 29 56 40 13 24 13 86 0 109
-14 27 -29 30 -83 16z"/>
        <path d="M1880 3507 c-13 -7 -27 -23 -31 -37 -4 -14 -7 -127 -8 -252 -1 -260
-2 -258 79 -258 78 0 80 4 80 204 0 120 4 176 12 184 8 8 64 12 184 12 200 0
204 2 204 80 0 81 3 80 -263 80 -165 0 -239 -4 -257 -13z"/>
        <path d="M2576 3504 c-10 -10 -16 -33 -16 -64 0 -71 13 -80 120 -80 107 0 120
9 120 80 0 71 -13 80 -120 80 -67 0 -92 -4 -104 -16z"/>
        <path d="M2976 3505 c-21 -22 -22 -108 0 -129 10 -11 34 -16 68 -16 28 0 57
-5 64 -12 9 -9 12 -81 12 -264 0 -289 -1 -284 80 -284 84 0 81 -14 78 356 -3
294 -5 325 -21 341 -26 26 -256 33 -281 8z"/>
        <path d="M2176 3184 c-10 -10 -16 -33 -16 -64 0 -63 17 -80 80 -80 63 0 80 17
80 80 0 63 -17 80 -80 80 -31 0 -54 -6 -64 -16z"/>
        <path d="M2496 3184 c-10 -10 -16 -33 -16 -64 0 -63 17 -80 80 -80 63 0 80 17
80 80 0 63 -17 80 -80 80 -31 0 -54 -6 -64 -16z"/>
        <path d="M2816 3184 c-10 -10 -16 -33 -16 -64 0 -63 17 -80 80 -80 63 0 80 17
80 80 0 63 -17 80 -80 80 -31 0 -54 -6 -64 -16z"/>
        <path d="M2176 2864 c-10 -10 -16 -33 -16 -64 0 -63 17 -80 80 -80 63 0 80 17
80 80 0 63 -17 80 -80 80 -31 0 -54 -6 -64 -16z"/>
        <path d="M2496 2864 c-10 -10 -16 -33 -16 -64 0 -63 17 -80 80 -80 63 0 80 17
80 80 0 63 -17 80 -80 80 -31 0 -54 -6 -64 -16z"/>
        <path d="M2816 2864 c-10 -10 -16 -33 -16 -64 0 -63 17 -80 80 -80 63 0 80 17
80 80 0 63 -17 80 -80 80 -31 0 -54 -6 -64 -16z"/>
        <path d="M1855 2784 c-14 -15 -16 -52 -13 -340 3 -295 5 -325 21 -341 15 -15
39 -19 141 -21 146 -5 156 1 156 78 0 64 -17 80 -84 80 -28 0 -57 5 -64 12 -9
9 -12 81 -12 264 0 216 -2 255 -16 268 -21 22 -107 21 -129 0z"/>
        <path d="M3136 2624 c-13 -13 -16 -44 -16 -188 0 -120 -4 -176 -12 -184 -8 -8
-55 -12 -144 -12 -155 0 -164 -4 -164 -80 0 -82 1 -82 236 -78 179 3 205 5
221 21 16 16 18 43 21 261 3 215 1 245 -13 260 -22 21 -108 22 -129 0z"/>
        <path d="M2176 2544 c-10 -10 -16 -33 -16 -64 0 -63 17 -80 80 -80 63 0 80 17
80 80 0 31 -6 54 -16 64 -21 21 -107 21 -128 0z"/>
        <path d="M2496 2544 c-10 -10 -16 -33 -16 -64 0 -63 17 -80 80 -80 63 0 80 17
80 80 0 31 -6 54 -16 64 -21 21 -107 21 -128 0z"/>
        <path d="M2816 2544 c-10 -10 -16 -33 -16 -64 0 -63 17 -80 80 -80 63 0 80 17
80 80 0 31 -6 54 -16 64 -21 21 -107 21 -128 0z"/>
        <path d="M2336 2224 c-10 -10 -16 -33 -16 -64 0 -76 9 -80 160 -80 151 0 160
4 160 80 0 76 -9 80 -160 80 -104 0 -132 -3 -144 -16z"/>
        <path d="M416 304 c-10 -10 -16 -33 -16 -64 0 -63 17 -80 80 -80 63 0 80 17
80 80 0 31 -6 54 -16 64 -21 21 -107 21 -128 0z"/>
        <path d="M1056 304 c-21 -21 -21 -107 0 -128 21 -21 107 -21 128 0 10 10 16
33 16 64 0 31 -6 54 -16 64 -21 21 -107 21 -128 0z"/>
        <path d="M1776 304 c-10 -10 -16 -33 -16 -64 0 -63 17 -80 80 -80 63 0 80 17
80 80 0 31 -6 54 -16 64 -21 21 -107 21 -128 0z"/>
        <path d="M2496 304 c-10 -10 -16 -33 -16 -64 0 -63 17 -80 80 -80 63 0 80 17
80 80 0 31 -6 54 -16 64 -21 21 -107 21 -128 0z"/>
        <path d="M3216 304 c-21 -21 -21 -107 0 -128 10 -10 33 -16 64 -16 63 0 80 17
80 80 0 31 -6 54 -16 64 -21 21 -107 21 -128 0z"/>
        <path d="M3936 304 c-21 -21 -21 -107 0 -128 10 -10 33 -16 64 -16 63 0 80 17
80 80 0 31 -6 54 -16 64 -21 21 -107 21 -128 0z"/>
        <path d="M4576 304 c-21 -21 -21 -107 0 -128 10 -10 33 -16 64 -16 63 0 80 17
80 80 0 31 -6 54 -16 64 -21 21 -107 21 -128 0z"/>
    </g>
</svg>
